<?xml version="1.0" standalone="no"?>
<!DOCTYPE svg PUBLIC "-//W3C//DTD SVG 20010904//EN"
 "http://www.w3.org/TR/2001/REC-SVG-20010904/DTD/svg10.dtd">
<svg version="1.0" xmlns="http://www.w3.org/2000/svg"
 width="1050.000000pt" height="817.000000pt" viewBox="0 0 1050.000000 817.000000"
 preserveAspectRatio="xMidYMid meet">

<g transform="translate(0.000000,817.000000) scale(0.100000,-0.100000)"
fill="#000000" stroke="none">
<path d="M0 4085 l0 -4085 5253 2 c2888 2 4461 4 3495 5 -977 2 -1758 7 -1758
12 0 4 9 20 20 34 17 21 18 26 5 31 -23 9 -53 -14 -59 -46 l-6 -28 -667 2
-667 3 -70 117 c-183 304 -330 508 -365 508 -15 -1 -85 -24 -141 -47 -14 -6
-68 -27 -120 -48 -52 -20 -102 -43 -110 -50 -8 -7 -21 -10 -28 -8 -16 6 20 53
57 73 16 8 50 33 76 55 87 73 92 82 48 87 -36 4 -33 21 7 32 34 10 35 25 1 42
-34 17 -45 31 -32 38 19 12 12 26 -14 26 -28 0 -31 -9 -12 -29 10 -11 1 -13
-50 -7 -52 5 -63 3 -63 -9 0 -41 -139 -46 -178 -7 -12 12 -30 22 -40 22 -9 0
-26 12 -37 26 -10 14 -31 32 -45 39 -15 8 -35 32 -45 54 -10 22 -21 39 -25 36
-13 -8 -51 27 -48 45 2 10 -8 30 -21 44 -30 31 -62 84 -92 149 -12 26 -25 47
-30 47 -5 0 -9 8 -9 17 0 9 -6 24 -14 32 -28 32 -116 281 -116 331 -1 14 -12
86 -25 160 -49 280 -54 321 -70 558 -8 133 -20 254 -25 268 -6 14 -10 43 -10
65 0 21 -5 39 -11 39 -14 0 -40 -64 -43 -109 -2 -20 -15 -108 -31 -196 -23
-134 -26 -177 -21 -265 3 -58 12 -130 21 -160 8 -30 22 -89 31 -130 26 -129
168 -495 244 -630 26 -47 71 -130 99 -185 29 -54 56 -104 60 -110 4 -5 16 -32
25 -58 10 -26 34 -71 54 -100 102 -150 122 -180 127 -197 6 -18 58 -47 126
-69 20 -6 45 -21 54 -31 10 -11 27 -20 37 -20 11 0 17 -4 14 -9 -4 -5 -29 -1
-58 10 -29 10 -60 19 -68 19 -41 0 -96 26 -136 62 l-44 41 -48 -30 c-83 -52
-196 -149 -263 -226 -71 -83 -175 -221 -209 -279 l-22 -38 -1949 0 -1949 0 0
929 0 930 47 40 c27 22 78 64 114 93 37 29 111 91 165 138 118 103 229 186
304 230 30 17 73 50 96 71 34 34 64 48 200 94 194 67 359 102 524 110 69 4
157 13 195 21 39 8 124 18 190 23 105 8 139 15 275 61 85 29 232 85 327 126
157 67 207 90 358 160 63 30 232 74 310 81 38 3 83 0 125 -10 66 -16 119 -24
340 -53 68 -8 128 -18 133 -21 4 -3 19 -2 32 1 l24 6 -28 58 c-56 112 -68 148
-122 363 -5 19 -9 149 -9 287 -1 236 -2 252 -20 262 -21 11 -82 13 -128 4
l-31 -6 5 -57 c4 -39 0 -83 -15 -146 -12 -49 -25 -132 -30 -183 -10 -99 -27
-138 -86 -198 -60 -62 -85 -69 -250 -70 -82 -1 -168 -6 -190 -12 -57 -16 -113
-15 -143 4 -15 8 -42 38 -61 65 -19 28 -43 55 -55 61 -25 14 -36 25 -59 61
-18 28 -41 57 -84 103 -13 14 -35 50 -50 80 -31 64 -56 91 -110 119 -43 22
-43 23 -97 69 -35 31 -37 35 -20 44 11 5 51 12 90 14 52 4 80 11 102 27 l31
21 -24 48 c-30 58 -47 212 -24 212 8 0 27 12 43 26 l28 25 -25 39 c-15 21 -28
51 -30 67 -3 21 -10 29 -29 31 -14 2 -31 13 -38 28 -8 14 -29 29 -52 36 -21 6
-40 19 -43 30 -6 15 -17 18 -85 18 -60 0 -79 -3 -84 -15 -3 -8 -15 -15 -27
-15 -27 0 -120 52 -116 65 5 13 82 33 134 34 23 1 54 6 69 12 21 7 45 6 94 -5
74 -17 206 -30 298 -29 47 0 68 5 83 19 12 11 23 18 25 17 2 -1 19 4 39 12 32
14 38 13 80 -7 25 -12 48 -31 51 -42 4 -12 10 -23 14 -26 12 -8 50 -88 50
-104 0 -8 3 -16 8 -18 4 -1 22 -23 41 -48 19 -25 47 -56 63 -69 20 -16 27 -29
23 -42 -4 -11 1 -25 14 -36 19 -16 20 -18 3 -36 -28 -32 3 -44 105 -43 l88 1
3 28 c2 15 -5 42 -16 60 -11 17 -25 48 -31 68 -7 20 -21 45 -31 54 -11 10 -20
28 -20 40 0 26 -45 112 -71 135 -9 9 -19 38 -22 70 -4 30 -11 82 -16 115 -12
77 -14 215 -3 215 13 0 32 -47 32 -80 0 -16 5 -32 10 -35 6 -3 10 -26 10 -50
0 -24 5 -47 11 -51 8 -5 10 20 5 92 -7 96 -6 102 28 197 19 55 37 101 40 105
18 18 91 32 167 32 82 0 86 -1 97 -25 21 -46 15 -62 -33 -86 -25 -12 -45 -30
-45 -38 0 -9 -9 -27 -20 -41 -11 -14 -20 -31 -20 -37 0 -7 -6 -13 -14 -13 -7
0 -25 -11 -40 -25 -23 -21 -26 -32 -26 -90 0 -45 6 -79 21 -110 23 -48 79
-104 107 -107 9 0 29 -2 43 -3 54 -4 61 -12 56 -58 -7 -63 28 -119 85 -136 24
-7 51 -20 60 -28 23 -21 44 -11 51 24 3 15 1 152 -5 303 -12 275 -10 310 21
496 6 34 21 95 34 135 13 41 27 99 31 129 25 215 41 321 61 414 4 18 30 52 68
88 53 50 68 59 111 64 44 6 47 8 26 16 -34 13 -7 28 37 21 74 -12 237 67 205
99 -18 18 -15 49 6 55 9 2 28 19 42 37 13 18 37 40 52 49 16 9 33 28 38 43 6
15 23 43 39 63 16 20 31 45 35 56 12 42 136 170 183 191 17 7 34 18 38 24 3 5
24 10 46 10 21 0 39 4 39 8 0 5 23 5 52 2 58 -8 243 -4 257 5 5 3 31 -2 56
-11 34 -11 93 -16 214 -18 l166 -2 70 -36 c92 -46 140 -61 167 -52 13 4 38 6
57 5 18 -1 44 5 57 14 20 13 38 13 126 4 57 -6 129 -8 160 -4 35 3 66 2 78 -5
17 -9 24 -6 44 13 l24 24 25 -28 c20 -23 34 -29 67 -29 33 0 43 -4 47 -19 5
-18 27 -31 81 -46 25 -7 27 -3 10 25 -17 27 7 70 39 70 26 0 63 -32 63 -55 0
-17 -30 -35 -62 -36 -21 -1 -21 -2 -3 -7 53 -18 75 -50 75 -107 0 -28 4 -36
14 -32 8 3 22 0 33 -8 17 -13 17 -14 -6 -39 l-23 -25 38 -6 c22 -3 46 -7 54
-8 10 -2 17 -18 20 -47 3 -25 12 -56 19 -69 10 -18 12 -51 8 -124 -4 -84 -2
-105 14 -143 11 -24 18 -48 16 -52 -3 -4 4 -45 15 -92 11 -47 23 -110 27 -140
3 -30 10 -60 13 -66 4 -6 -2 -20 -13 -30 -30 -27 -114 -25 -161 4 -48 30 -172
56 -198 42 -10 -5 -37 -10 -60 -10 -22 0 -53 -6 -68 -14 -16 -7 -78 -16 -148
-19 -145 -8 -258 -28 -310 -56 -21 -12 -46 -21 -54 -21 -26 -1 -93 -54 -113
-90 -10 -19 -24 -37 -29 -39 -13 -5 -43 -39 -44 -51 -1 -6 -2 -19 -3 -30 0
-12 -11 -24 -24 -29 -22 -9 -25 -17 -33 -113 -15 -182 -11 -234 29 -324 20
-43 43 -100 53 -126 10 -30 34 -64 65 -93 26 -24 50 -54 54 -65 4 -12 12 -19
18 -16 7 3 20 9 30 12 31 11 16 76 -40 160 -18 28 -33 56 -33 62 0 24 19 20
55 -13 37 -33 127 -71 144 -61 4 3 36 -4 70 -14 35 -11 86 -20 114 -20 29 -1
63 -7 77 -15 18 -10 59 -14 142 -15 95 0 125 4 164 20 26 11 44 23 41 26 -15
16 -94 12 -123 -5 -27 -16 -42 -17 -122 -10 -96 9 -141 25 -165 59 -14 21
-105 71 -142 78 -11 3 -49 4 -85 3 -68 -1 -112 11 -142 41 -17 17 -17 18 5 22
12 3 36 5 52 4 27 0 122 6 243 16 29 2 42 -1 42 -9 0 -8 6 -16 13 -19 6 -3 1
-3 -11 0 -21 5 -23 4 -13 -15 12 -22 45 -44 54 -35 3 3 47 7 99 9 95 4 192 16
263 34 65 17 113 14 124 -8 13 -23 57 -17 74 10 7 11 19 19 27 20 38 2 75 36
84 77 7 34 14 43 35 48 14 3 38 10 52 15 52 20 129 -45 129 -109 0 -10 16 -44
35 -76 19 -32 35 -62 35 -67 0 -5 11 -16 25 -25 29 -19 33 -59 10 -90 -20 -26
-19 -70 5 -145 10 -35 22 -83 26 -107 4 -23 11 -45 15 -48 12 -7 11 -54 -1
-54 -5 0 -10 -22 -10 -49 0 -27 -6 -53 -13 -59 -8 -7 -13 -45 -15 -116 -1 -72
-6 -115 -17 -135 -8 -17 -15 -43 -15 -59 0 -16 -5 -44 -11 -61 -8 -23 -8 -36
-1 -43 8 -8 7 -19 -5 -39 -13 -21 -14 -33 -6 -51 5 -13 7 -32 3 -43 -16 -43
-29 -123 -29 -183 0 -35 -9 -94 -20 -130 -10 -37 -22 -80 -25 -95 -4 -15 -15
-35 -26 -45 -11 -9 -20 -24 -20 -34 0 -10 -6 -18 -12 -19 -7 0 3 -5 22 -11
106 -30 496 -193 770 -323 341 -162 487 -227 567 -256 l53 -18 92 42 c90 40
96 41 193 40 186 -2 314 -52 575 -224 192 -127 222 -145 310 -192 41 -22 107
-63 145 -91 39 -28 170 -118 292 -199 122 -82 288 -197 368 -256 l145 -109 0
1109 c0 962 -2 1109 -15 1109 -10 0 -15 15 -17 57 -4 71 -21 78 -48 21 -23
-50 -41 -63 -95 -72 -54 -9 -105 21 -102 60 3 35 -20 42 -34 10 -13 -28 -43
-42 -109 -51 -59 -8 -96 6 -105 42 -15 61 -46 64 -69 8 -19 -44 -71 -69 -124
-60 -37 6 -45 3 -123 -57 -46 -35 -100 -74 -121 -86 -20 -12 -38 -29 -41 -37
-10 -25 -102 -45 -158 -35 -28 5 -56 13 -63 17 -30 18 -83 71 -107 108 -61 93
-66 108 -73 216 -4 57 -12 121 -17 142 l-10 38 -77 -2 c-42 -1 -124 6 -182 15
-58 9 -153 20 -212 25 -80 6 -113 13 -133 27 -15 10 -39 26 -53 34 -59 33 -95
64 -133 116 -23 31 -47 54 -58 54 -22 0 -61 33 -61 52 0 8 -5 19 -11 25 -7 7
-4 12 13 16 25 7 35 42 17 63 -15 18 -1 39 34 52 32 12 95 67 86 76 -2 3 -31
-5 -64 -16 -33 -11 -84 -23 -112 -27 l-53 -8 0 32 c0 26 7 37 38 57 20 13 45
27 55 31 16 6 24 37 11 49 -3 4 -7 32 -8 63 -3 49 0 58 21 75 14 11 32 22 42
25 10 3 25 21 35 41 16 35 19 36 56 30 l40 -6 -12 27 c-6 16 -18 33 -26 40
-13 11 -10 17 17 42 54 51 29 79 -45 50 -36 -13 -80 -4 -65 14 12 16 129 21
145 7 9 -7 21 -1 42 21 l28 30 -23 6 c-22 6 -23 7 -6 19 18 14 13 34 -10 34
-8 0 -11 7 -8 21 7 27 -11 39 -60 39 -23 0 -36 4 -32 10 8 13 84 50 103 50 7
0 12 6 9 13 -2 6 -11 10 -18 8 -8 -2 -31 -6 -51 -9 -34 -4 -38 -2 -38 19 -1
47 -25 64 -88 61 -51 -3 -60 0 -88 26 -30 27 -74 123 -74 160 0 34 -21 92 -33
92 -12 0 -88 162 -87 185 0 6 4 16 8 23 16 24 44 -1 75 -67 24 -52 31 -61 35
-43 2 12 -6 42 -17 65 -23 48 -26 79 -11 108 9 16 15 17 31 8 19 -10 20 -8 13
28 -6 38 -29 66 -49 60 -5 -2 -12 -18 -15 -37 -7 -44 -43 -59 -65 -27 -9 13
-11 25 -6 30 6 6 4 18 -4 31 -8 12 -14 30 -14 41 -1 39 -34 198 -71 334 -24
89 -25 101 -5 101 21 0 19 17 -4 25 -10 3 -26 14 -36 25 -19 21 -65 126 -65
148 0 21 -42 112 -51 112 -5 0 -9 7 -9 15 0 8 -8 19 -19 24 -15 8 -17 19 -13
59 4 46 2 52 -34 91 -42 47 -100 81 -138 81 -14 0 -34 10 -46 22 -11 12 -22
19 -26 16 -7 -8 21 -53 55 -90 13 -15 21 -31 18 -35 -9 -8 22 -43 38 -43 7 0
19 -7 26 -17 13 -15 10 -16 -28 -10 -24 4 -43 4 -43 -1 0 -9 45 -72 57 -81 11
-8 53 -69 53 -76 0 -3 -7 -2 -15 2 -20 12 -175 163 -175 172 0 4 -17 23 -37
42 -65 61 -158 163 -176 191 -9 15 -17 37 -17 48 0 23 22 36 41 25 6 -4 35 -9
65 -12 44 -3 54 -1 54 12 0 18 9 19 46 5 45 -18 50 1 20 72 -15 35 -33 70 -41
78 -7 8 -29 46 -48 84 -20 37 -42 76 -50 85 -8 9 -21 29 -29 45 -9 16 -38 43
-65 60 -124 76 -133 85 -133 117 0 38 -33 87 -69 101 -14 6 -45 10 -69 9 -23
-1 -50 3 -60 8 -9 5 -33 16 -52 25 -58 28 -94 50 -140 84 -24 18 -53 32 -64
32 -12 0 -30 7 -40 15 -17 13 219 15 1977 15 1990 0 1997 0 1997 20 0 20 -7
20 -5250 20 l-5250 0 0 -4085z m3201 4038 c0 -5 2 -33 5 -63 5 -52 4 -56 -23
-76 -34 -25 -58 -31 -185 -49 -103 -14 -118 -19 -118 -39 0 -13 -42 -27 -90
-31 -62 -4 -70 -6 -70 -18 0 -7 -10 -17 -22 -22 -12 -6 -26 -19 -32 -30 -17
-31 -33 -45 -51 -45 -9 0 -19 -9 -22 -20 -3 -11 -12 -20 -19 -20 -8 0 -14 9
-14 20 0 13 7 20 20 20 11 0 20 5 20 10 0 10 -50 15 -97 11 -13 -1 -23 3 -23
9 0 5 -7 10 -15 10 -8 0 -19 9 -25 20 -8 15 -21 20 -50 20 -63 0 -90 17 -91
59 -2 43 -2 41 3 65 3 16 -5 19 -67 22 -92 6 -83 6 -138 -2 -49 -7 -127 10
-127 28 0 4 -7 8 -15 8 -12 0 -13 4 -5 19 8 16 24 20 112 24 60 3 131 13 171
24 37 11 67 18 68 14 0 -3 4 3 9 14 l9 20 0 -20 c1 -17 3 -17 11 -5 9 13 10
13 10 0 0 -13 1 -13 10 0 8 13 10 12 10 -2 0 -22 33 -24 50 -3 7 8 21 15 32
15 10 0 16 5 13 10 -4 7 122 10 369 10 207 0 376 -3 377 -7z m1909 -13 c0 -5
-5 -10 -11 -10 -5 0 -7 5 -4 10 3 6 8 10 11 10 2 0 4 -4 4 -10z m380 -54 l35
-13 -55 -6 c-30 -4 -117 -8 -194 -10 -112 -3 -135 -1 -122 9 10 7 61 15 114
19 53 3 102 8 107 10 22 8 82 3 115 -9z m-3575 -36 c-3 -5 -13 -10 -21 -10 -8
0 -14 5 -14 10 0 6 9 10 21 10 11 0 17 -4 14 -10z m3475 -59 c0 -17 -23 -25
-62 -22 -21 1 -47 -3 -57 -9 -11 -5 -64 -12 -118 -15 -146 -8 -196 -13 -214
-20 -10 -3 -20 -2 -23 3 -5 9 43 25 84 27 8 1 40 7 70 13 123 25 159 29 238
31 45 0 82 -3 82 -8z m-533 -67 c-3 -3 -12 -4 -19 -1 -8 3 -5 6 6 6 11 1 17
-2 13 -5z m-70 -12 c23 -14 -49 -44 -98 -40 -44 3 -44 3 -19 17 23 13 69 28
95 30 6 0 15 -3 22 -7z m-147 -40 c0 -10 -65 -42 -85 -42 -35 0 -6 35 35 43
42 7 50 7 50 -1z m708 -11 c19 -12 -14 -24 -42 -15 -21 7 -21 7 -1 15 26 10
28 10 43 0z m1552 5 c0 -3 -4 -8 -10 -11 -5 -3 -10 -1 -10 4 0 6 5 11 10 11 6
0 10 -2 10 -4z m-1180 -47 c0 -5 -12 -9 -27 -9 -27 1 -27 1 -9 15 19 14 36 12
36 -6z m204 -34 c6 -16 -3 -19 -28 -9 -22 8 -20 24 3 24 10 0 21 -7 25 -15z
m-4965 -8 c42 -11 58 -35 65 -95 5 -49 10 -58 27 -59 33 -3 49 -23 49 -62 0
-26 9 -47 30 -73 47 -56 54 -85 30 -115 -16 -21 -20 -39 -18 -94 1 -55 -2 -73
-18 -90 -17 -19 -19 -36 -17 -197 1 -117 5 -178 12 -180 6 -2 11 -8 11 -13 0
-5 11 -27 25 -48 25 -37 26 -71 1 -71 -11 0 -56 -63 -56 -79 0 -5 -7 -14 -15
-21 -8 -6 -14 -15 -13 -18 2 -10 -35 -85 -49 -100 -9 -10 -13 -60 -13 -176 0
-152 1 -165 22 -191 18 -24 20 -32 10 -57 -9 -24 -8 -33 3 -44 10 -10 13 -31
10 -72 -2 -31 -7 -100 -10 -152 -3 -52 -13 -108 -21 -124 -7 -16 -14 -46 -14
-66 0 -21 -7 -43 -15 -50 -47 -39 29 -110 117 -110 36 0 50 6 73 30 16 17 33
30 38 30 5 0 24 7 42 16 23 10 35 24 39 44 4 21 10 28 21 24 25 -10 75 16 91
47 29 57 71 -2 76 -106 l3 -60 37 -3 c32 -3 42 2 75 37 21 22 48 42 60 44 11
1 28 9 36 15 28 24 187 -15 187 -46 0 -4 15 -23 34 -42 58 -62 70 -95 67 -190
-4 -122 2 -137 47 -138 84 -1 126 -4 115 -9 -7 -2 -13 -10 -13 -16 0 -15 -39
-41 -65 -43 -10 -1 -21 -7 -23 -13 -2 -6 -9 -11 -15 -11 -7 0 -17 -10 -22 -22
-6 -12 -24 -30 -42 -41 -29 -17 -34 -17 -69 -2 -21 8 -44 21 -52 28 -8 6 -20
12 -26 12 -31 2 -154 43 -173 58 -7 5 -13 7 -13 3 0 -4 -12 0 -28 8 -16 8 -37
35 -52 65 -14 28 -28 51 -32 51 -5 0 -8 5 -8 11 0 10 -24 39 -33 39 -2 0 -3
-12 -3 -27 1 -16 -3 -34 -8 -40 -10 -16 -40 -17 -31 -3 11 18 -3 44 -18 32 -6
-5 -35 -13 -64 -17 -63 -8 -73 -19 -69 -73 3 -38 0 -45 -32 -70 -19 -15 -39
-26 -44 -24 -6 1 -33 -5 -61 -14 -45 -15 -51 -15 -59 -1 -7 14 -12 14 -36 1
-53 -27 -139 -9 -117 26 10 16 -24 24 -51 11 -21 -9 -35 -6 -92 21 -37 18 -71
33 -77 33 -44 2 -82 50 -101 128 -10 42 -58 77 -107 77 -23 0 -60 5 -82 10
-65 15 -245 21 -245 8 0 -6 -8 -2 -18 9 -12 15 -33 22 -67 24 -28 2 -53 9 -57
14 -5 6 -8 5 -8 -2 0 -7 -7 -10 -15 -7 -13 5 -15 84 -14 628 0 341 3 615 6
608 4 -10 8 -10 20 -1 8 7 37 11 69 10 46 -2 58 2 82 24 76 71 96 83 151 90
31 4 71 15 89 26 18 10 38 19 44 19 6 0 28 15 48 33 21 17 50 40 65 51 l27 19
-7 122 c-4 84 -3 125 4 129 6 4 11 15 11 25 0 38 -210 42 -241 5 -22 -27 -35
-20 -127 69 -13 12 -29 36 -37 54 -14 33 -55 64 -55 42 0 -8 -4 -8 -13 -1 -7
6 -32 14 -56 17 -37 4 -44 2 -48 -15 -3 -11 -9 -20 -13 -20 -5 0 -11 -8 -13
-17 -3 -10 -5 71 -6 180 -1 164 2 201 14 213 13 14 15 13 15 -5 0 -20 1 -20
20 -3 11 9 31 18 43 19 34 3 144 30 158 38 6 5 62 14 123 21 61 7 140 18 176
24 148 26 335 34 399 17z m1646 -134 c-3 -43 -8 -79 -10 -81 -2 -2 -27 1 -55
7 -28 6 -64 11 -80 11 -17 0 -30 5 -30 10 0 6 11 10 25 10 14 0 25 5 25 10 0
6 -4 10 -10 10 -5 0 -10 8 -10 18 0 11 18 26 50 41 28 13 50 28 50 32 0 5 12
9 26 9 l25 0 -6 -77z m3210 64 c17 -13 17 -14 -2 -19 -25 -7 -48 6 -39 21 9
14 18 14 41 -2z m-858 -34 c4 -11 -26 -27 -35 -19 -2 3 -2 12 2 21 6 18 27 16
33 -2z m792 -68 c43 -30 84 -62 91 -70 7 -8 18 -15 25 -15 15 0 29 -30 19 -39
-4 -3 -9 -1 -11 6 -2 7 -32 18 -66 24 -39 8 -70 21 -85 36 -12 13 -27 23 -32
23 -6 0 -10 8 -10 18 0 10 -9 25 -20 35 -11 9 -20 21 -20 27 0 22 34 8 109
-45z m-164 -15 c4 -6 14 -9 23 -6 10 3 28 -1 42 -10 23 -13 20 -14 -40 -8 -69
6 -80 10 -80 25 0 12 47 12 55 -1z m346 -130 c23 -18 23 -19 4 -20 -11 0 -30
3 -43 6 -18 5 -20 9 -11 20 15 19 22 18 50 -6z m-3317 -54 c46 -40 48 -45 48
-93 0 -27 -5 -60 -12 -73 -10 -18 -9 -28 1 -47 12 -22 11 -27 -6 -40 -11 -8
-33 -12 -50 -10 -17 2 -58 -6 -95 -20 -60 -23 -69 -24 -117 -12 -29 6 -61 20
-72 31 -11 10 -27 18 -35 18 -18 0 -61 44 -81 81 -8 15 -25 29 -37 32 -36 9
-83 50 -86 75 -2 12 1 22 7 22 6 0 21 11 34 24 26 25 54 30 306 46 64 4 123 8
131 8 8 1 37 -18 64 -42z m3866 9 c10 -12 10 -15 -3 -15 -8 0 -20 7 -27 15
-10 12 -10 15 3 15 8 0 20 -7 27 -15z m-3870 -545 c0 -16 -5 -30 -10 -30 -14
0 -24 26 -16 45 10 26 26 16 26 -15z m58 -122 c24 -17 46 -37 49 -45 3 -9 7
-102 8 -207 1 -105 4 -222 7 -259 3 -37 1 -70 -4 -73 -4 -3 -4 -13 2 -23 5
-10 7 -21 3 -24 -3 -4 -7 -34 -10 -68 -2 -34 -10 -71 -18 -83 -8 -11 -15 -30
-15 -42 0 -20 -60 -84 -79 -84 -4 0 -13 -11 -20 -24 -19 -36 -52 -46 -123 -39
-53 4 -66 3 -78 -12 -12 -15 -11 -19 10 -36 24 -19 25 -20 6 -34 -20 -15 -37
-19 -71 -15 -29 3 -76 29 -70 39 10 18 -25 31 -116 45 -101 15 -238 58 -251
78 -13 21 -9 60 15 128 18 50 31 70 57 88 l35 23 -3 77 c-2 53 4 104 19 162
11 47 22 99 24 116 1 17 8 40 14 51 12 23 33 86 51 155 7 26 20 53 29 61 25
22 90 40 121 33 18 -3 33 0 40 9 9 11 36 15 105 15 58 0 105 5 126 14 43 18
83 11 137 -26z m4082 -1456 c0 -28 24 -82 36 -82 14 0 24 -44 14 -60 -6 -9 -9
-9 -15 -1 -4 8 -11 9 -19 2 -14 -12 -66 4 -110 32 -15 10 -43 21 -62 24 -18 3
-38 11 -44 18 -7 8 -26 11 -57 7 -32 -3 -44 -2 -39 6 3 6 -2 16 -11 21 -17 10
-16 13 7 32 23 19 32 21 115 14 121 -10 148 -10 153 3 5 16 32 3 32 -16z
m-562 -240 c4 -14 -34 -16 -42 -3 -6 10 13 21 28 17 6 -1 12 -8 14 -14z m-117
1 c4 -57 10 -79 28 -115 11 -23 18 -44 15 -47 -3 -3 -42 3 -87 13 -45 10 -99
17 -120 16 -32 -1 -38 2 -35 17 2 10 16 20 37 24 19 4 38 15 44 24 9 17 94 75
109 75 4 0 8 -3 9 -7z m362 -88 c4 -8 2 -17 -3 -20 -6 -4 -10 3 -10 14 0 25 6
27 13 6z m1680 -19 c-3 -39 -18 -53 -38 -36 -11 10 -13 16 -4 26 6 8 9 21 5
30 -4 12 0 15 17 12 18 -2 22 -9 20 -32z m-6778 -166 c-3 -5 4 -6 16 -3 14 4
25 -1 35 -16 8 -11 25 -21 36 -21 12 0 29 -7 38 -15 15 -13 131 -36 233 -44
11 -1 8 -31 -3 -31 -5 0 -18 -8 -28 -17 -11 -10 -34 -26 -51 -36 -18 -9 -35
-26 -38 -37 -3 -11 -10 -20 -15 -20 -5 0 -6 -5 -3 -10 4 -6 3 -10 -2 -9 -22 4
-33 -3 -33 -20 0 -11 6 -21 13 -24 6 -2 1 -4 -13 -4 -46 0 -125 -26 -163 -56
-35 -27 -39 -28 -61 -13 -13 8 -38 14 -55 14 -18 -1 -40 6 -48 15 -15 15 -15
18 2 36 9 11 21 18 26 15 12 -7 38 38 36 64 -1 15 -8 22 -22 23 -11 0 -29 3
-40 5 -11 3 -26 6 -33 6 -16 2 -24 35 -20 78 2 28 10 37 47 57 24 13 49 23 56
23 6 0 24 13 38 30 16 18 33 27 42 24 8 -3 13 -10 10 -14z m2073 -83 c4 -31
-12 -36 -28 -8 -15 29 -12 43 8 39 10 -2 18 -14 20 -31z m4664 -305 c33 12 52
2 26 -13 -13 -7 -15 -15 -8 -33 5 -14 10 -53 11 -88 3 -95 -11 -118 -175 -280
-78 -77 -80 -79 -124 -76 -52 3 -62 18 -33 47 16 16 18 21 6 21 -29 0 -15 28
23 45 70 33 139 94 210 185 36 48 42 94 17 153 -19 46 -19 50 2 39 10 -6 27
-6 45 0z m-641 -14 c3 -38 -4 -95 -13 -105 -12 -15 -66 -17 -86 -4 -10 6 -1
22 35 64 49 58 62 67 64 45z m181 -33 c-5 -28 -22 -24 -22 6 0 10 6 19 14 19
9 0 12 -8 8 -25z m228 -30 c-7 -8 -19 -15 -27 -15 -13 0 -13 3 -3 15 7 8 19
15 27 15 13 0 13 -3 3 -15z m80 -30 c0 -16 -17 -19 -44 -9 -22 9 -10 24 20 24
15 0 24 -6 24 -15z m-336 -56 c-1 -29 -8 -55 -14 -59 -9 -5 -10 -20 -6 -44 6
-34 5 -36 -19 -36 -20 0 -25 5 -25 24 0 13 -7 26 -15 30 -13 5 -13 9 -3 28 7
12 19 28 26 36 6 7 12 20 12 27 0 14 26 45 38 45 4 0 7 -23 6 -51z m252 -4
c26 -20 30 -28 26 -59 -6 -52 -53 -100 -92 -94 -19 3 -30 0 -30 -8 0 -15 -28
-26 -35 -13 -11 16 6 51 21 45 8 -3 0 21 -21 60 -49 91 -48 94 33 93 54 -1 73
-6 98 -24z m-356 -190 c0 -2 -9 -9 -20 -15 -16 -9 -20 -8 -20 5 0 8 9 15 20
15 11 0 20 -2 20 -5z m180 -235 c6 0 18 7 27 15 21 21 38 6 54 -50 7 -25 17
-45 22 -45 5 0 7 -10 4 -22 -3 -13 -2 -41 2 -63 6 -31 3 -46 -10 -66 -10 -14
-18 -34 -19 -45 0 -10 -2 -35 -3 -54 l-2 -35 -50 1 c-88 2 -239 48 -275 84 -3
3 -24 18 -48 34 l-43 29 22 24 c13 12 29 23 36 23 8 0 22 13 31 30 9 16 22 30
29 30 7 0 26 20 43 44 50 74 106 104 147 79 12 -7 27 -13 33 -13z m-230 -67
c-1 -19 -21 -36 -76 -64 -66 -33 -95 -38 -70 -14 8 8 28 18 45 21 16 3 42 19
57 35 27 28 44 37 44 22z m-152 -192 c9 -5 55 -28 102 -50 47 -23 105 -52 129
-66 l44 -25 -32 -6 c-17 -4 -31 -13 -31 -20 0 -8 -10 -14 -25 -14 -14 0 -25 4
-25 9 0 5 -15 11 -32 14 -171 30 -188 37 -188 72 0 14 5 25 11 25 5 0 7 5 4
10 -3 6 -13 10 -21 10 -8 0 -12 -4 -9 -10 4 -6 -5 -10 -19 -10 -23 0 -25 2
-15 18 13 20 57 50 77 51 7 1 20 -3 30 -8z m-4456 -236 c54 -11 59 -37 14 -82
-20 -20 -36 -40 -36 -44 0 -5 -12 -4 -26 1 -14 6 -38 10 -54 10 -56 0 -136 68
-111 93 30 30 119 39 213 22z m2015 -2541 c-3 -3 -12 -4 -19 -1 -8 3 -5 6 6 6
11 1 17 -2 13 -5z m-509 -701 c3 -19 -1 -23 -26 -23 -36 0 -63 27 -41 41 25
17 64 6 67 -18z"/>
<path d="M2480 7816 c0 -14 5 -26 10 -26 6 0 10 9 10 19 0 11 -4 23 -10 26 -6
4 -10 -5 -10 -19z"/>
<path d="M265 5509 c-103 -7 -182 -26 -213 -52 -10 -8 -16 -7 -21 2 -5 7 -8 0
-9 -18 -1 -43 9 -44 276 -43 158 1 175 3 207 22 33 20 34 23 20 44 -31 47 -86
56 -260 45z"/>
<path d="M140 5340 c0 -5 7 -7 15 -4 8 4 15 8 15 10 0 2 -7 4 -15 4 -8 0 -15
-4 -15 -10z"/>
<path d="M7879 6533 c6 -12 16 -25 21 -28 17 -11 11 5 -11 28 l-21 22 11 -22z"/>
<path d="M7940 6455 c0 -13 55 -86 58 -77 4 12 -39 82 -50 82 -5 0 -8 -2 -8
-5z"/>
<path d="M4214 5736 c-17 -8 -34 -20 -37 -29 -3 -8 -27 -25 -54 -37 -102 -49
-127 -81 -78 -100 17 -6 35 -5 59 5 20 8 56 15 81 15 43 0 50 -4 111 -63 52
-51 79 -69 132 -87 59 -21 141 -71 150 -93 2 -4 8 -5 13 -1 5 3 9 -5 9 -18 -1
-20 -2 -21 -11 -5 -12 21 -42 22 -59 2 -8 -10 -32 -14 -83 -14 -113 1 -238
-38 -324 -100 -39 -29 -73 -94 -73 -143 0 -27 39 -46 119 -58 40 -5 81 -15 91
-20 22 -12 33 0 20 20 -13 21 7 50 46 66 39 16 54 12 54 -15 0 -10 7 -35 15
-54 24 -58 21 -69 -20 -61 -30 5 -34 4 -29 -9 3 -9 16 -19 27 -23 12 -4 24
-10 27 -14 3 -4 40 -20 83 -35 67 -24 87 -26 143 -20 35 3 62 10 59 15 -9 14
24 34 38 22 19 -15 128 -25 200 -17 65 7 65 7 63 38 -1 29 2 31 42 39 23 4 47
10 52 13 15 9 12 51 -5 65 -9 7 -14 19 -11 26 3 8 -8 28 -23 45 -31 34 -31 69
-1 69 37 0 60 47 60 123 l0 69 -62 62 c-35 34 -72 73 -84 87 -25 29 -99 75
-146 91 -18 6 -40 16 -48 23 -8 6 -53 17 -100 24 -47 7 -99 19 -116 26 -17 7
-64 18 -104 26 -47 8 -83 21 -100 36 -32 26 -78 29 -126 9z m289 -517 c-5 -5
-32 -16 -59 -24 -27 -7 -80 -22 -119 -33 -85 -24 -143 -33 -149 -24 -15 24 65
70 144 82 74 12 196 12 183 -1z m32 -139 c3 -5 -1 -10 -9 -10 -9 0 -16 5 -16
10 0 6 4 10 9 10 6 0 13 -4 16 -10z m264 -75 c17 -20 31 -38 31 -41 0 -12 -72
-34 -110 -34 -45 0 -44 -1 -28 37 36 83 60 92 107 38z"/>
<path d="M10295 5320 c-22 -4 -96 -17 -164 -29 -90 -15 -133 -28 -155 -44 -34
-26 -158 -87 -176 -87 -6 0 -15 -10 -21 -22 -16 -36 -34 -66 -52 -86 -9 -10
-23 -38 -32 -62 -8 -25 -19 -54 -24 -65 -35 -80 -61 -187 -61 -248 0 -15 -7
-44 -16 -65 -9 -20 -16 -52 -15 -69 2 -20 -6 -44 -18 -61 -11 -16 -21 -48 -22
-74 -2 -36 3 -51 27 -81 16 -20 32 -37 36 -37 4 0 15 -15 24 -32 30 -61 130
-140 217 -172 27 -10 62 -31 78 -47 16 -16 34 -29 39 -29 5 0 25 13 43 30 57
50 112 35 195 -52 24 -26 29 -23 37 22 6 35 10 40 33 41 95 4 121 -9 151 -71
20 -43 51 -53 51 -16 0 13 7 31 15 40 13 13 15 101 15 670 l0 656 -82 -1 c-46
-1 -101 -5 -123 -9z"/>
<path d="M4749 4813 c-15 -13 -34 -23 -43 -23 -8 0 -22 -10 -31 -23 -9 -15
-33 -28 -65 -36 -27 -7 -50 -17 -50 -22 0 -5 -8 -9 -18 -9 -9 0 -23 -9 -30
-20 -11 -19 -10 -19 36 -13 26 4 61 8 77 8 17 0 32 3 35 6 3 4 37 14 75 22
189 42 191 44 130 100 -42 38 -78 42 -116 10z"/>
<path d="M6615 4750 c-3 -5 -2 -10 4 -10 5 0 13 5 16 10 3 6 2 10 -4 10 -5 0
-13 -4 -16 -10z"/>
<path d="M6550 4720 c-10 -6 -11 -13 -5 -19 6 -6 16 -7 25 -1 10 6 11 13 5 19
-6 6 -16 7 -25 1z"/>
<path d="M3168 4123 c6 -2 18 -2 25 0 6 3 1 5 -13 5 -14 0 -19 -2 -12 -5z"/>
<path d="M4608 4059 c-40 -34 -76 -69 -80 -79 -4 -10 -20 -21 -36 -25 -22 -4
-34 -16 -47 -44 -9 -21 -27 -44 -39 -51 -13 -6 -30 -25 -40 -41 -9 -16 -21
-29 -27 -29 -14 0 -49 -38 -49 -55 0 -23 34 -18 60 10 13 14 27 25 32 25 20 0
151 114 175 152 4 8 35 31 67 52 48 32 62 37 76 28 15 -9 19 -7 24 11 11 43 7
95 -10 101 -26 10 -30 8 -106 -55z"/>
<path d="M5940 4057 c0 -19 4 -47 9 -60 16 -42 -4 -92 -52 -127 -40 -29 -46
-31 -132 -29 -99 1 -185 -23 -238 -67 -16 -13 -32 -24 -37 -24 -5 0 -24 -14
-42 -31 -29 -27 -38 -30 -76 -25 -24 3 -53 11 -65 18 -12 7 -51 13 -86 13 -52
0 -65 3 -75 19 -27 48 -97 94 -170 114 -39 11 -96 6 -96 -9 0 -19 48 -58 90
-72 25 -9 75 -29 112 -46 64 -29 66 -32 59 -58 -6 -24 -7 -88 -2 -155 1 -11
25 -29 66 -48 62 -29 67 -30 95 -15 34 18 60 19 60 4 0 -8 5 -8 15 1 8 7 23 9
32 5 10 -3 35 -8 56 -10 52 -6 60 -13 53 -48 -4 -21 -1 -36 10 -49 10 -10 15
-18 13 -19 -2 0 -21 -2 -42 -5 -20 -2 -50 -10 -66 -18 -41 -22 -130 -34 -189
-26 -27 3 -58 3 -68 -1 -14 -5 -25 1 -40 19 -19 24 -24 25 -48 14 -19 -8 -25
-18 -24 -37 2 -20 8 -25 30 -25 15 0 28 -4 28 -10 0 -11 -121 -7 -140 5 -6 3
-50 8 -98 9 -81 2 -93 6 -177 48 -50 25 -90 51 -90 59 0 8 -12 15 -27 17 -14
2 -32 10 -38 18 -7 8 -24 14 -39 14 -18 0 -30 7 -36 23 -10 22 -19 23 -72 12
-12 -3 -25 -15 -29 -27 -4 -13 -14 -28 -23 -34 -12 -10 -13 -15 -3 -27 7 -8 9
-22 6 -31 -4 -10 1 -25 11 -36 10 -11 14 -24 9 -32 -5 -7 -9 -28 -11 -45 -2
-30 1 -33 25 -33 15 0 52 12 82 26 30 14 67 30 81 34 35 10 227 -8 264 -25 17
-8 71 -19 120 -25 124 -14 210 -29 276 -47 31 -9 62 -13 67 -9 6 3 31 1 57 -6
43 -12 46 -14 43 -42 -5 -49 19 -54 223 -50 99 2 188 8 199 14 10 5 48 10 85
10 36 0 81 7 100 15 19 7 56 16 83 19 26 3 58 10 72 15 14 5 37 12 51 15 15 3
46 22 69 41 23 19 45 35 49 35 4 0 15 14 24 30 10 17 15 30 11 30 -3 0 -1 6 5
13 6 8 8 17 4 20 -7 8 9 10 48 7 35 -2 55 20 63 69 3 23 11 41 16 41 6 0 10
11 10 24 0 14 5 28 10 31 17 10 11 42 -14 80 -27 39 -143 155 -156 155 -4 0
-13 13 -19 28 -9 21 -33 39 -86 67 -41 21 -72 42 -69 47 3 4 -13 26 -35 47
-23 22 -41 42 -41 44 0 3 -12 19 -27 35 -16 16 -35 37 -43 48 -8 10 -27 30
-43 43 l-27 24 0 -36z m75 -360 c42 -11 53 -19 67 -49 19 -41 115 -125 136
-120 8 2 19 -2 23 -10 7 -10 9 -8 9 5 0 11 -9 26 -20 35 -20 17 -20 19 -4 75
20 69 33 72 85 17 21 -22 42 -40 47 -40 5 0 19 -11 31 -24 29 -30 25 -70 -6
-74 -17 -3 -23 -10 -24 -30 0 -37 -31 -106 -49 -111 -27 -8 -84 -12 -154 -11
-38 0 -95 -4 -125 -10 -31 -6 -67 -11 -81 -13 -14 -1 -32 -7 -40 -12 -22 -14
-248 -14 -266 0 -14 10 -13 14 2 42 17 28 24 32 74 35 30 2 62 1 72 -4 17 -8
33 15 22 33 -3 5 2 9 10 9 21 0 56 53 56 86 0 34 61 183 75 184 6 0 33 -6 60
-13z"/>
<path d="M5678 3363 c7 -3 16 -2 19 1 4 3 -2 6 -13 5 -11 0 -14 -3 -6 -6z"/>
<path d="M6810 3291 c-5 -11 -10 -26 -10 -33 0 -8 -9 -33 -20 -56 -11 -22 -20
-48 -20 -57 0 -28 -21 -57 -36 -51 -8 3 -17 -1 -20 -9 -4 -8 -13 -15 -20 -15
-8 0 -19 -11 -24 -25 -5 -14 -14 -25 -18 -25 -14 0 -56 -45 -72 -77 -8 -15
-37 -51 -66 -78 -28 -28 -54 -60 -58 -71 -3 -11 -18 -27 -31 -34 -14 -8 -28
-24 -31 -37 -4 -13 -9 -24 -13 -24 -3 -1 -18 -3 -33 -4 -15 -2 -37 -9 -49 -16
-25 -13 -223 -208 -230 -225 -7 -19 -117 -104 -151 -117 -18 -7 -57 -28 -86
-46 -48 -31 -58 -34 -121 -32 -59 2 -71 -1 -80 -16 -6 -12 -6 -25 0 -34 15
-24 10 -38 -21 -54 -16 -9 -30 -21 -30 -27 0 -6 -12 -22 -26 -35 -20 -18 -34
-23 -53 -19 -85 20 -86 19 -114 -13 -30 -36 -74 -43 -126 -22 -24 11 -41 11
-83 1 -83 -19 -88 -21 -88 -36 0 -20 -10 -17 -41 12 -25 24 -34 26 -113 25
-58 -1 -97 -6 -121 -18 -28 -13 -38 -14 -44 -5 -8 13 -72 35 -79 27 -7 -7 19
-85 28 -85 12 0 186 -173 204 -203 9 -15 29 -33 44 -39 15 -7 39 -20 53 -30
14 -9 29 -15 33 -11 3 3 6 -3 6 -15 0 -12 -3 -22 -7 -22 -5 0 -8 -36 -9 -80
l-1 -80 23 15 c13 8 30 15 39 15 8 0 15 5 15 10 0 6 14 19 31 29 23 14 39 17
66 11 19 -5 40 -13 46 -19 6 -6 17 -11 25 -11 8 0 22 -10 32 -22 12 -16 30
-24 57 -25 21 -1 79 -4 130 -7 54 -3 95 -1 98 4 10 16 35 12 35 -5 0 -8 -8
-15 -17 -15 -13 0 -14 -3 -5 -12 7 -7 12 -31 12 -54 0 -47 22 -76 43 -55 8 8
11 39 9 91 l-3 79 32 -12 c25 -9 33 -9 36 1 8 22 23 13 23 -14 0 -14 4 -23 10
-19 6 3 10 1 10 -4 0 -6 -5 -11 -11 -11 -7 0 -9 -16 -5 -45 6 -42 4 -47 -30
-80 -20 -20 -39 -34 -41 -31 -3 3 -25 -18 -49 -46 -29 -34 -61 -59 -94 -73
-27 -11 -61 -31 -75 -43 -17 -15 -33 -21 -46 -17 -23 7 -47 -4 -30 -14 6 -4
-6 -26 -33 -55 -27 -31 -46 -45 -50 -37 -11 17 -24 13 -42 -15 -13 -19 -14
-28 -5 -37 25 -25 11 -64 -22 -58 -4 1 -13 -12 -18 -28 -6 -17 -20 -33 -32
-37 -12 -4 -28 -15 -35 -25 -18 -25 -30 -24 -43 5 -12 25 -58 42 -60 22 -1 -6
-2 -15 -4 -21 -1 -5 -3 -20 -3 -32 -1 -14 -9 -23 -18 -23 -11 0 -14 -6 -9 -20
4 -13 1 -22 -9 -26 -18 -7 -21 -24 -5 -24 7 0 34 14 61 30 26 17 57 30 68 30
23 0 176 78 223 114 19 14 37 26 40 26 10 0 100 66 118 87 9 10 44 43 80 73
279 240 351 304 466 415 63 61 133 135 156 165 23 30 62 75 86 100 24 25 55
61 70 80 14 19 28 37 31 40 3 3 18 23 35 45 16 22 31 42 34 45 21 19 76 98 97
140 14 27 29 50 35 50 5 0 9 6 9 12 0 7 16 38 35 69 36 59 78 168 90 234 4 22
6 70 5 107 -1 65 18 128 39 128 5 0 12 15 16 33 10 53 56 177 66 177 5 0 9 9
9 20 0 31 48 100 69 100 13 0 31 -20 56 -62 19 -35 59 -101 87 -148 61 -103
94 -175 109 -238 7 -29 12 -197 14 -437 2 -250 7 -400 14 -418 6 -16 11 -54
11 -86 0 -126 13 -272 24 -268 13 4 24 54 36 177 6 52 15 116 21 143 6 26 12
94 13 151 1 86 4 107 20 125 15 17 16 23 6 36 -10 12 -10 21 0 44 9 23 9 34
-3 57 -8 16 -18 45 -22 64 -4 19 -11 40 -15 45 -14 18 -40 153 -40 206 0 29
-7 94 -15 143 -8 50 -19 130 -26 179 -8 62 -18 98 -35 123 -13 19 -24 39 -24
44 0 12 -92 90 -106 90 -6 0 -23 9 -36 20 -14 10 -44 22 -67 26 -45 7 -45 7
-31 34 8 14 4 20 -18 32 -27 13 -41 38 -22 38 6 0 10 -5 10 -11 0 -6 7 -8 16
-5 9 4 22 2 28 -4 9 -7 11 -2 8 19 -2 16 1 39 8 51 9 16 9 25 1 33 -15 15 -14
40 0 31 7 -4 10 -1 7 6 -2 8 -14 14 -26 15 -12 1 -28 9 -35 17 -22 27 -47 30
-57 5 -8 -19 -15 -10 -11 16 2 16 -29 6 -39 -12z m90 -287 c0 -8 -4 -12 -10
-9 -5 3 -10 10 -10 16 0 5 5 9 10 9 6 0 10 -7 10 -16z m-300 -767 c0 -7 -10
-21 -21 -31 -12 -10 -19 -12 -15 -4 3 7 9 21 12 31 7 20 24 23 24 4z m-240
-187 c0 -13 -7 -20 -20 -20 -19 0 -19 1 -2 19 22 25 22 25 22 1z m-167 -259
c11 -11 -3 -41 -20 -41 -8 0 -23 5 -34 10 -14 8 -19 7 -19 -1 0 -8 -4 -8 -15
1 -18 15 -2 42 21 33 8 -3 14 0 14 7 0 12 37 5 53 -9z m-232 -218 c-9 -16 -10
-15 -11 8 0 14 3 29 8 33 12 12 14 -22 3 -41z"/>
<path d="M5223 2873 c-66 -8 -26 -33 55 -33 43 0 60 21 26 34 -16 6 -23 6 -81
-1z"/>
<path d="M5387 2843 c-4 -3 -7 -18 -7 -33 0 -31 -32 -50 -81 -50 -59 0 -94
-41 -48 -55 33 -11 129 5 147 23 10 9 39 23 65 30 59 15 120 67 97 82 -17 11
-163 14 -173 3z"/>
<path d="M5492 1461 c-11 -6 -9 -9 5 -13 12 -3 20 0 20 8 0 16 -6 17 -25 5z"/>
<path d="M5534 1345 c16 -16 46 -20 46 -6 0 5 -10 11 -22 15 -36 9 -41 7 -24
-9z"/>
<path d="M5170 1230 c0 -16 5 -21 23 -18 12 2 22 10 22 18 0 8 -10 16 -22 18
-18 3 -23 -2 -23 -18z"/>
<path d="M4997 1044 c-14 -14 -6 -24 19 -24 16 0 24 5 22 13 -5 14 -31 21 -41
11z"/>
<path d="M5105 890 c-3 -5 1 -10 9 -10 9 0 16 5 16 10 0 6 -4 10 -9 10 -6 0
-13 -4 -16 -10z"/>
<path d="M6830 708 c-11 -24 -31 -63 -46 -88 -107 -183 -112 -193 -88 -188 9
2 26 21 38 43 60 105 96 176 96 186 0 6 9 22 20 36 22 28 26 53 10 53 -6 0
-19 -19 -30 -42z"/>
<path d="M7027 154 c-4 -4 -7 -17 -7 -28 0 -19 1 -19 17 -3 12 11 14 20 7 27
-6 6 -13 7 -17 4z"/>
</g>
</svg>
